<mxfile host="app.diagrams.net" modified="2021-08-11T04:49:14.490Z" agent="5.0 (Windows NT 6.1; Win64; x64) AppleWebKit/537.36 (KHTML, like Gecko) Chrome/92.0.4515.131 Safari/537.36" etag="ZAvxlK8XYvZXhwkJFcD9" version="14.9.0" type="github">
  <diagram id="MZVb2nb7MB5gttFT3kyg" name="Page-1">
    <mxGraphModel dx="782" dy="3782" grid="1" gridSize="10" guides="1" tooltips="1" connect="1" arrows="1" fold="1" page="1" pageScale="1" pageWidth="2339" pageHeight="3300" math="0" shadow="0">
      <root>
        <mxCell id="0" />
        <mxCell id="1" parent="0" />
        <mxCell id="9IoLNUDI6ptMPvQE96R7-55" style="edgeStyle=orthogonalEdgeStyle;rounded=0;orthogonalLoop=1;jettySize=auto;html=1;entryX=0;entryY=0.5;entryDx=0;entryDy=0;exitX=0;exitY=1;exitDx=0;exitDy=0;" edge="1" parent="1" source="9IoLNUDI6ptMPvQE96R7-1" target="9IoLNUDI6ptMPvQE96R7-2">
          <mxGeometry relative="1" as="geometry">
            <Array as="points">
              <mxPoint x="280" y="-212" />
              <mxPoint x="280" y="-30" />
            </Array>
          </mxGeometry>
        </mxCell>
        <mxCell id="9IoLNUDI6ptMPvQE96R7-59" style="edgeStyle=orthogonalEdgeStyle;rounded=0;orthogonalLoop=1;jettySize=auto;html=1;entryX=0.5;entryY=1;entryDx=0;entryDy=0;exitX=1;exitY=0;exitDx=0;exitDy=0;" edge="1" parent="1" source="9IoLNUDI6ptMPvQE96R7-1" target="9IoLNUDI6ptMPvQE96R7-57">
          <mxGeometry relative="1" as="geometry">
            <Array as="points">
              <mxPoint x="460" y="-268" />
            </Array>
          </mxGeometry>
        </mxCell>
        <mxCell id="9IoLNUDI6ptMPvQE96R7-1" value="iservice" style="ellipse;whiteSpace=wrap;html=1;" vertex="1" parent="1">
          <mxGeometry x="310" y="-280" width="120" height="80" as="geometry" />
        </mxCell>
        <mxCell id="9IoLNUDI6ptMPvQE96R7-56" style="edgeStyle=orthogonalEdgeStyle;rounded=0;orthogonalLoop=1;jettySize=auto;html=1;entryX=1;entryY=1;entryDx=0;entryDy=0;exitX=1;exitY=0.5;exitDx=0;exitDy=0;" edge="1" parent="1" source="9IoLNUDI6ptMPvQE96R7-2" target="9IoLNUDI6ptMPvQE96R7-1">
          <mxGeometry relative="1" as="geometry">
            <Array as="points">
              <mxPoint x="460" y="-30" />
              <mxPoint x="460" y="-212" />
            </Array>
          </mxGeometry>
        </mxCell>
        <mxCell id="9IoLNUDI6ptMPvQE96R7-2" value="uart0&lt;br&gt;can&lt;br&gt;rs485&lt;br&gt;gpio" style="whiteSpace=wrap;html=1;aspect=fixed;" vertex="1" parent="1">
          <mxGeometry x="320" y="-80" width="100" height="100" as="geometry" />
        </mxCell>
        <mxCell id="9IoLNUDI6ptMPvQE96R7-8" value="循环queue" style="rounded=0;whiteSpace=wrap;html=1;" vertex="1" parent="1">
          <mxGeometry x="420" y="-150" width="80" height="40" as="geometry" />
        </mxCell>
        <mxCell id="9IoLNUDI6ptMPvQE96R7-32" value="event_json" style="text;html=1;align=center;verticalAlign=middle;resizable=0;points=[];autosize=1;strokeColor=none;" vertex="1" parent="1">
          <mxGeometry x="460" y="-350" width="70" height="20" as="geometry" />
        </mxCell>
        <mxCell id="9IoLNUDI6ptMPvQE96R7-33" value="payload格式化，发送" style="text;html=1;align=center;verticalAlign=middle;resizable=0;points=[];autosize=1;strokeColor=none;" vertex="1" parent="1">
          <mxGeometry x="155" y="-130" width="130" height="20" as="geometry" />
        </mxCell>
        <mxCell id="9IoLNUDI6ptMPvQE96R7-34" value="去格式化的payload" style="text;html=1;align=center;verticalAlign=middle;resizable=0;points=[];autosize=1;strokeColor=none;" vertex="1" parent="1">
          <mxGeometry x="460" y="-200" width="120" height="20" as="geometry" />
        </mxCell>
        <mxCell id="9IoLNUDI6ptMPvQE96R7-64" style="edgeStyle=orthogonalEdgeStyle;rounded=0;orthogonalLoop=1;jettySize=auto;html=1;entryX=1;entryY=1;entryDx=0;entryDy=0;" edge="1" parent="1" source="9IoLNUDI6ptMPvQE96R7-57" target="9IoLNUDI6ptMPvQE96R7-63">
          <mxGeometry relative="1" as="geometry">
            <Array as="points">
              <mxPoint x="460" y="-572" />
            </Array>
          </mxGeometry>
        </mxCell>
        <mxCell id="9IoLNUDI6ptMPvQE96R7-57" value="链表" style="rounded=0;whiteSpace=wrap;html=1;" vertex="1" parent="1">
          <mxGeometry x="420" y="-440" width="80" height="40" as="geometry" />
        </mxCell>
        <mxCell id="9IoLNUDI6ptMPvQE96R7-61" style="edgeStyle=orthogonalEdgeStyle;rounded=0;orthogonalLoop=1;jettySize=auto;html=1;entryX=0;entryY=0;entryDx=0;entryDy=0;" edge="1" parent="1" source="9IoLNUDI6ptMPvQE96R7-58" target="9IoLNUDI6ptMPvQE96R7-1">
          <mxGeometry relative="1" as="geometry">
            <Array as="points">
              <mxPoint x="280" y="-268" />
            </Array>
          </mxGeometry>
        </mxCell>
        <mxCell id="9IoLNUDI6ptMPvQE96R7-58" value="链表" style="rounded=0;whiteSpace=wrap;html=1;" vertex="1" parent="1">
          <mxGeometry x="240" y="-440" width="80" height="40" as="geometry" />
        </mxCell>
        <mxCell id="9IoLNUDI6ptMPvQE96R7-66" style="edgeStyle=orthogonalEdgeStyle;rounded=0;orthogonalLoop=1;jettySize=auto;html=1;entryX=0.5;entryY=0;entryDx=0;entryDy=0;exitX=0;exitY=1;exitDx=0;exitDy=0;" edge="1" parent="1" source="9IoLNUDI6ptMPvQE96R7-63" target="9IoLNUDI6ptMPvQE96R7-58">
          <mxGeometry relative="1" as="geometry">
            <Array as="points">
              <mxPoint x="280" y="-572" />
            </Array>
          </mxGeometry>
        </mxCell>
        <mxCell id="9IoLNUDI6ptMPvQE96R7-78" style="edgeStyle=orthogonalEdgeStyle;rounded=0;orthogonalLoop=1;jettySize=auto;html=1;entryX=0.5;entryY=1;entryDx=0;entryDy=0;exitX=1;exitY=0;exitDx=0;exitDy=0;" edge="1" parent="1" source="9IoLNUDI6ptMPvQE96R7-63" target="9IoLNUDI6ptMPvQE96R7-77">
          <mxGeometry relative="1" as="geometry">
            <Array as="points">
              <mxPoint x="460" y="-628" />
            </Array>
          </mxGeometry>
        </mxCell>
        <mxCell id="9IoLNUDI6ptMPvQE96R7-63" value="protocol_server" style="ellipse;whiteSpace=wrap;html=1;" vertex="1" parent="1">
          <mxGeometry x="310" y="-640" width="120" height="80" as="geometry" />
        </mxCell>
        <mxCell id="9IoLNUDI6ptMPvQE96R7-67" value="event_json" style="text;html=1;align=center;verticalAlign=middle;resizable=0;points=[];autosize=1;strokeColor=none;" vertex="1" parent="1">
          <mxGeometry x="210" y="-520" width="70" height="20" as="geometry" />
        </mxCell>
        <mxCell id="9IoLNUDI6ptMPvQE96R7-68" value="轮询" style="text;html=1;align=center;verticalAlign=middle;resizable=0;points=[];autosize=1;strokeColor=none;" vertex="1" parent="1">
          <mxGeometry x="460" y="-530" width="40" height="20" as="geometry" />
        </mxCell>
        <mxCell id="9IoLNUDI6ptMPvQE96R7-69" value="轮询" style="text;html=1;align=center;verticalAlign=middle;resizable=0;points=[];autosize=1;strokeColor=none;" vertex="1" parent="1">
          <mxGeometry x="240" y="-350" width="40" height="20" as="geometry" />
        </mxCell>
        <mxCell id="9IoLNUDI6ptMPvQE96R7-75" style="edgeStyle=orthogonalEdgeStyle;rounded=0;orthogonalLoop=1;jettySize=auto;html=1;entryX=0.5;entryY=0;entryDx=0;entryDy=0;exitX=0;exitY=1;exitDx=0;exitDy=0;" edge="1" parent="1" source="9IoLNUDI6ptMPvQE96R7-71" target="9IoLNUDI6ptMPvQE96R7-74">
          <mxGeometry relative="1" as="geometry">
            <Array as="points">
              <mxPoint x="270" y="-852" />
            </Array>
          </mxGeometry>
        </mxCell>
        <mxCell id="9IoLNUDI6ptMPvQE96R7-71" value="&lt;span&gt;control_server&lt;/span&gt;" style="ellipse;whiteSpace=wrap;html=1;" vertex="1" parent="1">
          <mxGeometry x="310" y="-920" width="120" height="80" as="geometry" />
        </mxCell>
        <mxCell id="9IoLNUDI6ptMPvQE96R7-76" style="edgeStyle=orthogonalEdgeStyle;rounded=0;orthogonalLoop=1;jettySize=auto;html=1;entryX=0;entryY=0;entryDx=0;entryDy=0;" edge="1" parent="1" source="9IoLNUDI6ptMPvQE96R7-74" target="9IoLNUDI6ptMPvQE96R7-63">
          <mxGeometry relative="1" as="geometry">
            <Array as="points">
              <mxPoint x="270" y="-628" />
            </Array>
          </mxGeometry>
        </mxCell>
        <mxCell id="9IoLNUDI6ptMPvQE96R7-74" value="链表" style="rounded=0;whiteSpace=wrap;html=1;" vertex="1" parent="1">
          <mxGeometry x="230" y="-760" width="80" height="40" as="geometry" />
        </mxCell>
        <mxCell id="9IoLNUDI6ptMPvQE96R7-79" style="edgeStyle=orthogonalEdgeStyle;rounded=0;orthogonalLoop=1;jettySize=auto;html=1;entryX=1;entryY=1;entryDx=0;entryDy=0;" edge="1" parent="1" source="9IoLNUDI6ptMPvQE96R7-77" target="9IoLNUDI6ptMPvQE96R7-71">
          <mxGeometry relative="1" as="geometry">
            <Array as="points">
              <mxPoint x="460" y="-852" />
            </Array>
          </mxGeometry>
        </mxCell>
        <mxCell id="9IoLNUDI6ptMPvQE96R7-77" value="链表" style="rounded=0;whiteSpace=wrap;html=1;" vertex="1" parent="1">
          <mxGeometry x="420" y="-760" width="80" height="40" as="geometry" />
        </mxCell>
        <mxCell id="9IoLNUDI6ptMPvQE96R7-80" value="virtual_json" style="text;html=1;align=center;verticalAlign=middle;resizable=0;points=[];autosize=1;strokeColor=none;" vertex="1" parent="1">
          <mxGeometry x="190" y="-820" width="80" height="20" as="geometry" />
        </mxCell>
        <mxCell id="9IoLNUDI6ptMPvQE96R7-81" value="virtual_json" style="text;html=1;align=center;verticalAlign=middle;resizable=0;points=[];autosize=1;strokeColor=none;" vertex="1" parent="1">
          <mxGeometry x="455" y="-680" width="80" height="20" as="geometry" />
        </mxCell>
        <mxCell id="9IoLNUDI6ptMPvQE96R7-82" value="轮询" style="text;html=1;align=center;verticalAlign=middle;resizable=0;points=[];autosize=1;strokeColor=none;" vertex="1" parent="1">
          <mxGeometry x="455" y="-820" width="40" height="20" as="geometry" />
        </mxCell>
        <mxCell id="9IoLNUDI6ptMPvQE96R7-83" value="轮询" style="text;html=1;align=center;verticalAlign=middle;resizable=0;points=[];autosize=1;strokeColor=none;" vertex="1" parent="1">
          <mxGeometry x="230" y="-680" width="40" height="20" as="geometry" />
        </mxCell>
      </root>
    </mxGraphModel>
  </diagram>
</mxfile>
